<?xml version="1.0" encoding="UTF-8"?>
<svg width="16" height="16" viewBox="0 0 16 16" version="1.1" xmlns="http://www.w3.org/2000/svg" xmlns:xlink="http://www.w3.org/1999/xlink">
    <title>icon/light/options</title>
    <g id="icon/light/options" stroke="none" stroke-width="1" fill="none" fill-rule="evenodd">
        <path d="M10.5,10 C11.4319,10 12.215,10.6374 12.437,11.5 L15,11.5 L15,12.5 L12.437,12.5 C12.215,13.3626 11.4319,14 10.5,14 C9.56808,14 8.78503,13.3626 8.56301,12.5 L1,12.5 L1,11.5 L8.56301,11.5 C8.78503,10.6374 9.56808,10 10.5,10 Z M10.5,11 C9.94772,11 9.5,11.4477 9.5,12 C9.5,12.5523 9.94772,13 10.5,13 C11.0523,13 11.5,12.5523 11.5,12 C11.5,11.4477 11.0523,11 10.5,11 Z M5.5,6 C6.43192,6 7.21497,6.63739 7.43699,7.5 L7.43699,7.5 L15,7.5 L15,8.5 L7.43699,8.5 C7.21497,9.36261 6.43192,10 5.5,10 C4.56808,10 3.78503,9.36261 3.56301,8.5 L3.56301,8.5 L1,8.5 L1,7.5 L3.56301,7.5 C3.78503,6.63739 4.56808,6 5.5,6 Z M5.5,7 C4.94772,7 4.5,7.44772 4.5,8 C4.5,8.55228 4.94772,9 5.5,9 C6.05228,9 6.5,8.55228 6.5,8 C6.5,7.44772 6.05228,7 5.5,7 Z M10.5,2 C11.4319,2 12.215,2.63739 12.437,3.5 L12.437,3.5 L15,3.5 L15,4.5 L12.437,4.5 C12.215,5.36261 11.4319,6 10.5,6 C9.56808,6 8.78503,5.36261 8.56301,4.5 L8.56301,4.5 L1,4.5 L1,3.5 L8.56301,3.5 C8.78503,2.63739 9.56808,2 10.5,2 Z M10.5,3 C9.94772,3 9.5,3.44772 9.5,4 C9.5,4.55228 9.94772,5 10.5,5 C11.0523,5 11.5,4.55228 11.5,4 C11.5,3.44772 11.0523,3 10.5,3 Z" id="shape" fill="#242424"></path>
    </g>
</svg>